<?xml version="1.0" encoding="utf-8"?>
<!-- Generated by IcoMoon.io -->
<!DOCTYPE svg PUBLIC "-//W3C//DTD SVG 1.1//EN" "http://www.w3.org/Graphics/SVG/1.1/DTD/svg11.dtd">
<svg version="1.1" xmlns="http://www.w3.org/2000/svg" xmlns:xlink="http://www.w3.org/1999/xlink" width="80" height="80" viewBox="0 0 80 80">
<g id="icomoon-ignore">
</g>
<path d="M76.655 22.508c-6.938-0.997-14.327-1.72-22.037-2.127l12.882-12.882-5-5-17.544 17.543c-1.641-0.029-3.293-0.043-4.956-0.043v0l-20-20-5 5 15.172 15.172c-9.447 0.331-18.464 1.135-26.827 2.337-2.151 8.416-3.345 17.715-3.345 27.492s1.194 19.075 3.344 27.491c11.222 1.613 23.62 2.509 36.656 2.509s25.434-0.895 36.655-2.509c2.151-8.416 3.345-17.715 3.345-27.491s-1.194-19.075-3.345-27.492zM67.492 68.328c-8.416 1.075-17.715 1.672-27.492 1.672s-19.075-0.597-27.492-1.672c-1.613-5.611-2.508-11.81-2.508-18.328s0.895-12.717 2.508-18.328c8.416-1.075 17.715-1.672 27.492-1.672s19.075 0.597 27.491 1.672c1.614 5.611 2.509 11.81 2.509 18.328s-0.895 12.717-2.508 18.328z" fill="#000000"></path>
</svg>
